<svg version="1.1" id="Layer_1" xmlns="http://www.w3.org/2000/svg" xmlns:xlink="http://www.w3.org/1999/xlink" x="0px" y="0px"
	 width="100%" viewBox="0 0 251 167" enable-background="new 0 0 251 167" xml:space="preserve">
<path fill="#FEFEFE" opacity="1.000000" stroke="none" 
	d="
M162.000000,168.000000 
	C108.000000,168.000000 54.500008,168.000000 1.000007,168.000000 
	C1.000005,112.333344 1.000005,56.666679 1.000002,1.000015 
	C84.666656,1.000010 168.333313,1.000010 251.999969,1.000005 
	C251.999985,56.666653 251.999985,112.333305 252.000000,167.999969 
	C222.166672,168.000000 192.333328,168.000000 162.000000,168.000000 
M56.884350,88.930832 
	C55.030788,86.955879 53.177227,84.980934 51.346657,83.030479 
	C56.461132,79.054062 58.173645,75.090157 56.375938,70.262772 
	C54.294796,64.674286 49.582825,63.428562 44.302185,63.365765 
	C39.690582,63.310921 35.077816,63.354324 30.379766,63.354324 
	C30.379766,77.542870 30.379766,91.216637 30.379766,105.051773 
	C35.521011,105.051773 40.343666,105.226318 45.149429,105.015602 
	C55.292843,104.570847 59.285233,99.373940 56.884350,88.930832 
M145.324463,73.417091 
	C145.324493,71.086395 145.537399,68.727203 145.230942,66.437523 
	C145.086853,65.360939 143.943695,64.418068 143.253281,63.414612 
	C142.727341,64.416183 141.752747,65.413788 141.743851,66.419930 
	C141.637833,78.405426 141.614334,90.393089 141.787781,102.377014 
	C141.802185,103.371185 143.403320,104.342377 144.267212,105.324242 
	C145.325912,97.823822 145.230545,91.333115 145.363510,84.847076 
	C145.437271,81.248703 150.127365,77.731873 154.263138,77.896477 
	C158.630737,78.070320 159.147720,81.033264 159.122910,84.497963 
	C159.074387,91.273491 159.108673,98.049606 159.108673,105.140289 
	C160.777466,104.928772 161.981705,104.776146 163.135956,104.629845 
	C163.135956,97.240891 163.305618,90.243568 163.087662,83.258354 
	C162.874893,76.439453 157.801208,72.899040 151.467514,75.058861 
	C149.522186,75.722229 147.840546,77.158852 145.635345,78.483330 
	C145.511765,76.840172 145.418045,75.594284 145.324463,73.417091 
M215.409668,74.934654 
	C209.508438,74.052788 204.316986,74.894882 201.372162,81.266251 
	C202.947922,81.412483 204.250366,80.770844 205.627502,80.459435 
	C208.831360,79.734932 212.074371,78.761063 215.294525,78.786125 
	C216.273651,78.793739 217.569412,81.651299 217.995163,83.381912 
	C218.127319,83.919060 215.980194,85.303169 214.686569,85.850250 
	C211.053589,87.386635 207.084671,88.270531 203.690414,90.192589 
	C199.711105,92.445961 198.886536,96.573250 200.446198,100.639839 
	C201.919876,104.482216 205.399384,106.134865 209.358063,105.386108 
	C212.333389,104.823334 215.128922,103.309921 217.462845,102.425064 
	C218.932236,103.435127 220.446045,104.475723 222.212616,105.690063 
	C222.212616,97.989876 222.065475,91.366867 222.262192,84.754082 
	C222.403152,80.015701 220.701767,76.728058 215.409668,74.934654 
M177.200943,82.338852 
	C177.200943,76.065048 177.200943,69.791245 177.200943,63.517441 
	C176.698471,63.312122 176.196014,63.106800 175.693542,62.901482 
	C174.972809,63.920387 173.637421,64.931892 173.625061,65.959328 
	C173.478943,78.100868 173.468857,90.245682 173.646088,102.386383 
	C173.660461,103.369598 175.315155,104.328880 176.207611,105.299278 
	C176.599625,104.989082 176.991623,104.678879 177.383636,104.368675 
	C176.209930,98.412933 177.848892,93.651062 183.263168,90.037552 
	C184.940918,93.270874 186.404922,96.396217 188.146790,99.358162 
	C189.689346,101.981186 190.028137,106.504173 195.425308,104.507172 
	C192.616638,99.191010 189.741165,94.147133 187.321030,88.893509 
	C186.698807,87.542786 186.980606,85.215187 187.771881,83.887512 
	C189.554489,80.896538 191.915588,78.250351 194.041290,75.463860 
	C185.174667,76.165619 183.930023,85.389069 177.200943,89.411629 
	C177.200943,87.117973 177.200943,85.198723 177.200943,82.338852 
M74.478943,105.149300 
	C80.542107,106.284485 85.558929,105.005661 89.534904,97.658791 
	C87.199089,98.211693 85.625366,98.104652 84.913208,98.836258 
	C81.920540,101.910660 78.490143,103.192680 74.553078,101.406021 
	C70.338112,99.493240 68.680122,95.847252 68.917168,90.750114 
	C75.286331,90.750114 81.521019,90.750114 88.356644,90.750114 
	C88.098862,87.767662 88.187714,85.269440 87.613991,82.933975 
	C86.599205,78.803047 84.106354,75.761009 79.711082,74.894623 
	C75.170563,73.999596 71.132339,74.904991 68.051376,78.696953 
	C61.526707,86.727341 64.459137,100.447014 74.478943,105.149300 
M134.227478,97.356239 
	C134.526184,93.032883 132.195068,90.571938 128.407349,89.148567 
	C125.464363,88.042633 122.353897,87.237259 119.646202,85.714470 
	C118.383286,85.004219 116.929199,82.575699 117.293068,81.526337 
	C117.804550,80.051262 120.027306,78.069557 121.340912,78.192894 
	C124.440582,78.483932 127.435455,79.891235 131.445480,81.153183 
	C131.445480,80.463051 131.939590,78.887993 131.362045,78.136345 
	C128.484741,74.391594 120.154099,73.436340 116.238434,76.166687 
	C111.483688,79.482117 111.987267,86.821709 117.242554,89.214897 
	C119.796341,90.377846 122.584618,91.015152 125.190018,92.078423 
	C127.941238,93.201210 131.301636,94.297905 130.154449,98.250504 
	C129.077362,101.961563 125.754730,102.597534 122.444168,101.997345 
	C120.570137,101.657585 118.379761,100.885986 117.164375,99.550980 
	C114.762802,96.913063 113.809761,98.316284 112.541550,100.287582 
	C120.453148,108.412407 131.170334,107.222443 134.227478,97.356239 
M100.328560,85.591042 
	C103.398178,82.292297 106.467796,78.993561 109.537415,75.694824 
	C109.062363,75.160942 108.587311,74.627068 108.112251,74.093193 
	C105.329247,75.730766 102.546249,77.368340 100.622101,78.500549 
	C99.157578,77.031937 97.833481,75.704155 96.509377,74.376366 
	C96.171143,74.683098 95.832909,74.989822 95.494675,75.296547 
	C95.494675,85.147972 95.494675,94.999390 95.494675,104.854263 
	C96.887115,104.854263 98.008972,104.854263 99.399712,104.854263 
	C99.399712,101.700119 99.313965,98.728386 99.423203,95.763832 
	C99.538277,92.641151 99.839653,89.525322 100.328560,85.591042 
z"/>
<path fill="#1D1D1D" opacity="1.000000" stroke="none" 
	d="
M57.034344,89.291008 
	C59.285233,99.373940 55.292843,104.570847 45.149429,105.015602 
	C40.343666,105.226318 35.521011,105.051773 30.379766,105.051773 
	C30.379766,91.216637 30.379766,77.542870 30.379766,63.354324 
	C35.077816,63.354324 39.690582,63.310921 44.302185,63.365765 
	C49.582825,63.428562 54.294796,64.674286 56.375938,70.262772 
	C58.173645,75.090157 56.461132,79.054062 51.346657,83.030479 
	C53.177227,84.980934 55.030788,86.955879 57.034344,89.291008 
M53.573895,93.540497 
	C51.686626,85.865143 45.893368,83.446777 34.934345,85.709137 
	C34.934345,90.806282 34.934345,95.880943 34.934345,101.142380 
	C38.680111,101.142380 42.137177,101.293549 45.575443,101.103889 
	C49.815010,100.870033 52.827110,98.926323 53.573895,93.540497 
M43.124249,67.163055 
	C40.391682,67.163055 37.659115,67.163055 34.926865,67.163055 
	C34.926865,72.253098 34.926865,76.624939 34.926865,81.320457 
	C38.007008,81.320457 40.791096,81.419952 43.565647,81.299614 
	C49.230247,81.053925 52.417603,78.369148 52.420666,74.002655 
	C52.423744,69.615570 50.128014,67.746948 43.124249,67.163055 
z"/>
<path fill="#0D0D0D" opacity="1.000000" stroke="none" 
	d="
M145.324402,73.882751 
	C145.418045,75.594284 145.511765,76.840172 145.635345,78.483330 
	C147.840546,77.158852 149.522186,75.722229 151.467514,75.058861 
	C157.801208,72.899040 162.874893,76.439453 163.087662,83.258354 
	C163.305618,90.243568 163.135956,97.240891 163.135956,104.629845 
	C161.981705,104.776146 160.777466,104.928772 159.108673,105.140289 
	C159.108673,98.049606 159.074387,91.273491 159.122910,84.497963 
	C159.147720,81.033264 158.630737,78.070320 154.263138,77.896477 
	C150.127365,77.731873 145.437271,81.248703 145.363510,84.847076 
	C145.230545,91.333115 145.325912,97.823822 144.267212,105.324242 
	C143.403320,104.342377 141.802185,103.371185 141.787781,102.377014 
	C141.614334,90.393089 141.637833,78.405426 141.743851,66.419930 
	C141.752747,65.413788 142.727341,64.416183 143.253281,63.414612 
	C143.943695,64.418068 145.086853,65.360939 145.230942,66.437523 
	C145.537399,68.727203 145.324493,71.086395 145.324402,73.882751 
z"/>
<path fill="#151515" opacity="1.000000" stroke="none" 
	d="
M215.790329,75.003296 
	C220.701767,76.728058 222.403152,80.015701 222.262192,84.754082 
	C222.065475,91.366867 222.212616,97.989876 222.212616,105.690063 
	C220.446045,104.475723 218.932236,103.435127 217.462845,102.425064 
	C215.128922,103.309921 212.333389,104.823334 209.358063,105.386108 
	C205.399384,106.134865 201.919876,104.482216 200.446198,100.639839 
	C198.886536,96.573250 199.711105,92.445961 203.690414,90.192589 
	C207.084671,88.270531 211.053589,87.386635 214.686569,85.850250 
	C215.980194,85.303169 218.127319,83.919060 217.995163,83.381912 
	C217.569412,81.651299 216.273651,78.793739 215.294525,78.786125 
	C212.074371,78.761063 208.831360,79.734932 205.627502,80.459435 
	C204.250366,80.770844 202.947922,81.412483 201.372162,81.266251 
	C204.316986,74.894882 209.508438,74.052788 215.790329,75.003296 
M211.131424,90.322784 
	C209.807648,90.985497 208.415131,91.540627 207.174423,92.333366 
	C204.611008,93.971214 202.380875,96.521935 204.489456,99.191322 
	C205.809097,100.861900 209.381790,101.979843 211.554962,101.517883 
	C217.944839,100.159538 219.175125,97.083702 217.646133,88.712631 
	C215.723602,89.184875 213.817398,89.653114 211.131424,90.322784 
z"/>
<path fill="#0B0B0B" opacity="1.000000" stroke="none" 
	d="
M177.200943,82.809158 
	C177.200943,85.198723 177.200943,87.117973 177.200943,89.411629 
	C183.930023,85.389069 185.174667,76.165619 194.041290,75.463860 
	C191.915588,78.250351 189.554489,80.896538 187.771881,83.887512 
	C186.980606,85.215187 186.698807,87.542786 187.321030,88.893509 
	C189.741165,94.147133 192.616638,99.191010 195.425308,104.507172 
	C190.028137,106.504173 189.689346,101.981186 188.146790,99.358162 
	C186.404922,96.396217 184.940918,93.270874 183.263168,90.037552 
	C177.848892,93.651062 176.209930,98.412933 177.383636,104.368675 
	C176.991623,104.678879 176.599625,104.989082 176.207611,105.299278 
	C175.315155,104.328880 173.660461,103.369598 173.646088,102.386383 
	C173.468857,90.245682 173.478943,78.100868 173.625061,65.959328 
	C173.637421,64.931892 174.972809,63.920387 175.693542,62.901482 
	C176.196014,63.106800 176.698471,63.312122 177.200943,63.517441 
	C177.200943,69.791245 177.200943,76.065048 177.200943,82.809158 
z"/>
<path fill="#1A1A1A" opacity="1.000000" stroke="none" 
	d="
M74.092842,105.102264 
	C64.459137,100.447014 61.526707,86.727341 68.051376,78.696953 
	C71.132339,74.904991 75.170563,73.999596 79.711082,74.894623 
	C84.106354,75.761009 86.599205,78.803047 87.613991,82.933975 
	C88.187714,85.269440 88.098862,87.767662 88.356644,90.750114 
	C81.521019,90.750114 75.286331,90.750114 68.917168,90.750114 
	C68.680122,95.847252 70.338112,99.493240 74.553078,101.406021 
	C78.490143,103.192680 81.920540,101.910660 84.913208,98.836258 
	C85.625366,98.104652 87.199089,98.211693 89.534904,97.658791 
	C85.558929,105.005661 80.542107,106.284485 74.092842,105.102264 
M71.052223,80.573662 
	C70.187431,82.581596 69.322647,84.589539 68.186584,87.227325 
	C74.009430,87.227325 78.854012,87.227325 85.466713,87.227325 
	C83.405655,83.826378 82.395554,80.123245 80.102867,78.970062 
	C77.966003,77.895256 74.464920,79.532707 71.052223,80.573662 
z"/>
<path fill="#141414" opacity="1.000000" stroke="none" 
	d="
M134.207291,97.721161 
	C131.170334,107.222443 120.453148,108.412407 112.541550,100.287582 
	C113.809761,98.316284 114.762802,96.913063 117.164375,99.550980 
	C118.379761,100.885986 120.570137,101.657585 122.444168,101.997345 
	C125.754730,102.597534 129.077362,101.961563 130.154449,98.250504 
	C131.301636,94.297905 127.941238,93.201210 125.190018,92.078423 
	C122.584618,91.015152 119.796341,90.377846 117.242554,89.214897 
	C111.987267,86.821709 111.483688,79.482117 116.238434,76.166687 
	C120.154099,73.436340 128.484741,74.391594 131.362045,78.136345 
	C131.939590,78.887993 131.445480,80.463051 131.445480,81.153183 
	C127.435455,79.891235 124.440582,78.483932 121.340912,78.192894 
	C120.027306,78.069557 117.804550,80.051262 117.293068,81.526337 
	C116.929199,82.575699 118.383286,85.004219 119.646202,85.714470 
	C122.353897,87.237259 125.464363,88.042633 128.407349,89.148567 
	C132.195068,90.571938 134.526184,93.032883 134.207291,97.721161 
z"/>
<path fill="#1A1A1A" opacity="1.000000" stroke="none" 
	d="
M100.194092,85.998772 
	C99.839653,89.525322 99.538277,92.641151 99.423203,95.763832 
	C99.313965,98.728386 99.399712,101.700119 99.399712,104.854263 
	C98.008972,104.854263 96.887115,104.854263 95.494675,104.854263 
	C95.494675,94.999390 95.494675,85.147972 95.494675,75.296547 
	C95.832909,74.989822 96.171143,74.683098 96.509377,74.376366 
	C97.833481,75.704155 99.157578,77.031937 100.622101,78.500549 
	C102.546249,77.368340 105.329247,75.730766 108.112251,74.093193 
	C108.587311,74.627068 109.062363,75.160942 109.537415,75.694824 
	C106.467796,78.993561 103.398178,82.292297 100.194092,85.998772 
z"/>
<path fill="#FAFAFA" opacity="1.000000" stroke="none" 
	d="
M53.553352,93.961670 
	C52.827110,98.926323 49.815010,100.870033 45.575443,101.103889 
	C42.137177,101.293549 38.680111,101.142380 34.934345,101.142380 
	C34.934345,95.880943 34.934345,90.806282 34.934345,85.709137 
	C45.893368,83.446777 51.686626,85.865143 53.553352,93.961670 
z"/>
<path fill="#F7F7F7" opacity="1.000000" stroke="none" 
	d="
M43.573013,67.164696 
	C50.128014,67.746948 52.423744,69.615570 52.420666,74.002655 
	C52.417603,78.369148 49.230247,81.053925 43.565647,81.299614 
	C40.791096,81.419952 38.007008,81.320457 34.926865,81.320457 
	C34.926865,76.624939 34.926865,72.253098 34.926865,67.163055 
	C37.659115,67.163055 40.391682,67.163055 43.573013,67.164696 
z"/>
<path fill="#F2F2F2" opacity="1.000000" stroke="none" 
	d="
M211.521301,90.222069 
	C213.817398,89.653114 215.723602,89.184875 217.646133,88.712631 
	C219.175125,97.083702 217.944839,100.159538 211.554962,101.517883 
	C209.381790,101.979843 205.809097,100.861900 204.489456,99.191322 
	C202.380875,96.521935 204.611008,93.971214 207.174423,92.333366 
	C208.415131,91.540627 209.807648,90.985497 211.521301,90.222069 
z"/>
<path fill="#E7E7E7" opacity="1.000000" stroke="none" 
	d="
M71.308296,80.274948 
	C74.464920,79.532707 77.966003,77.895256 80.102867,78.970062 
	C82.395554,80.123245 83.405655,83.826378 85.466713,87.227325 
	C78.854012,87.227325 74.009430,87.227325 68.186584,87.227325 
	C69.322647,84.589539 70.187431,82.581596 71.308296,80.274948 
z"/>
</svg>